<?xml version="1.0" encoding="UTF-8"?>
<svg height="16px" viewBox="0 0 16 16" width="16px" xmlns="http://www.w3.org/2000/svg" xmlns:xlink="http://www.w3.org/1999/xlink">
    <filter id="a" height="100%" width="100%" x="0%" y="0%">
        <feColorMatrix color-interpolation-filters="sRGB" values="0 0 0 0 1 0 0 0 0 1 0 0 0 0 1 0 0 0 1 0"/>
    </filter>
    <mask id="b">
        <g filter="url(#a)">
            <rect fill-opacity="0.148713" height="19.2" width="19.2" x="-1.6" y="-1.6"/>
        </g>
    </mask>
    <clipPath id="c">
        <rect height="152" width="192"/>
    </clipPath>
    <mask id="d">
        <g filter="url(#a)">
            <rect fill-opacity="0.148713" height="19.2" width="19.2" x="-1.6" y="-1.6"/>
        </g>
    </mask>
    <clipPath id="e">
        <rect height="152" width="192"/>
    </clipPath>
    <mask id="f">
        <g filter="url(#a)">
            <rect fill-opacity="0.148713" height="19.2" width="19.2" x="-1.6" y="-1.6"/>
        </g>
    </mask>
    <clipPath id="g">
        <rect height="152" width="192"/>
    </clipPath>
    <mask id="h">
        <g filter="url(#a)">
            <rect fill-opacity="0.148713" height="19.2" width="19.2" x="-1.6" y="-1.6"/>
        </g>
    </mask>
    <clipPath id="i">
        <rect height="152" width="192"/>
    </clipPath>
    <mask id="j">
        <g filter="url(#a)">
            <rect fill-opacity="0.148713" height="19.2" width="19.2" x="-1.6" y="-1.6"/>
        </g>
    </mask>
    <clipPath id="k">
        <rect height="152" width="192"/>
    </clipPath>
    <g mask="url(#b)">
        <g clip-path="url(#c)" transform="matrix(1 0 0 1 -168 -16)">
            <path d="m 64 88 l 8 21 v 25 l -4 -1.070312 v -24.929688 z m 0 0"/>
        </g>
    </g>
    <g mask="url(#d)">
        <g clip-path="url(#e)" transform="matrix(1 0 0 1 -168 -16)">
            <path d="m 83 88 l -8 21 v 25 l 4 -1.070312 v -24.929688 z m 0 0"/>
        </g>
    </g>
    <g mask="url(#f)">
        <g clip-path="url(#g)" transform="matrix(1 0 0 1 -168 -16)">
            <path d="m 37 78.5 l 7 9 l 14 -2 l -8 10 l 19 31 v -16 l -12.199219 -41.324219 z m 0 0"/>
        </g>
    </g>
    <g mask="url(#h)">
        <g clip-path="url(#i)" transform="matrix(1 0 0 1 -168 -16)">
            <path d="m 109 78.5 l -7 9 l -14 -2 l 8 10 l -19 31 v -16 l 12.199219 -41.324219 z m 0 0"/>
        </g>
    </g>
    <g mask="url(#j)">
        <g clip-path="url(#k)" transform="matrix(1 0 0 1 -168 -16)">
            <path d="m 56.964844 91 h 30.605468 c 6.082032 0 11.015626 -4.933594 11.015626 -11.015625 v -33.054687 c 0 -14.871094 -12.058594 -26.929688 -26.929688 -26.929688 c -14.535156 0.339844 -26.046875 12.394531 -25.707031 26.929688 v 33.054687 c 0 6.082031 4.933593 11.015625 11.015625 11.015625 z m 0 0"/>
        </g>
    </g>
    <path d="m 7.867188 1 c -3.132813 0.066406 -5.617188 2.445312 -5.546876 5.308594 v 0.695312 h -0.792968 c -0.289063 0 -0.527344 0.21875 -0.527344 0.484375 v 1.960938 c 0.003906 0.707031 0.5625 1.304687 1.320312 1.421875 v 1.957031 c 0 1.199219 1.066407 2.171875 2.378907 2.171875 h 6.601562 c 1.3125 0 2.378907 -0.972656 2.378907 -2.171875 v -1.957031 c 0.757812 -0.117188 1.316406 -0.714844 1.320312 -1.421875 v -1.960938 c 0 -0.265625 -0.238281 -0.484375 -0.527344 -0.484375 h -0.792968 v -0.695312 c 0 -2.929688 -2.601563 -5.308594 -5.8125 -5.308594 z m 0 0" fill="none" stroke="#000000" stroke-width="1.99999"/>
    <path d="m 1.925781 6.035156 h 12.191407 v 0.96875 h -12.191407 z m 0 0"/>
    <path d="m 5 7 h 2 v 2 h -2 z m 0 0"/>
    <path d="m 9 7 h 2 v 2 h -2 z m 0 0"/>
</svg>
